<svg width="34" height="34" viewBox="0 0 34 34" fill="none" xmlns="http://www.w3.org/2000/svg">
<g filter="url(#filter0_iiii_25_172)">
<path d="M31 17C31 24.732 24.732 31 17 31C9.26801 31 3 24.732 3 17C3 9.26801 9.26801 3 17 3C24.732 3 31 9.26801 31 17ZM9.3 17C9.3 21.2526 12.7474 24.7 17 24.7C21.2526 24.7 24.7 21.2526 24.7 17C24.7 12.7474 21.2526 9.3 17 9.3C12.7474 9.3 9.3 12.7474 9.3 17Z" fill="url(#paint0_linear_25_172)"/>
<path d="M31 17C31 24.732 24.732 31 17 31C9.26801 31 3 24.732 3 17C3 9.26801 9.26801 3 17 3C24.732 3 31 9.26801 31 17ZM9.3 17C9.3 21.2526 12.7474 24.7 17 24.7C21.2526 24.7 24.7 21.2526 24.7 17C24.7 12.7474 21.2526 9.3 17 9.3C12.7474 9.3 9.3 12.7474 9.3 17Z" fill="url(#paint1_radial_25_172)" style="mix-blend-mode:overlay"/>
<path d="M31 17C31 24.732 24.732 31 17 31C9.26801 31 3 24.732 3 17C3 9.26801 9.26801 3 17 3C24.732 3 31 9.26801 31 17ZM9.3 17C9.3 21.2526 12.7474 24.7 17 24.7C21.2526 24.7 24.7 21.2526 24.7 17C24.7 12.7474 21.2526 9.3 17 9.3C12.7474 9.3 9.3 12.7474 9.3 17Z" fill="url(#paint2_radial_25_172)" fill-opacity="0.22" style="mix-blend-mode:overlay"/>
</g>
<defs>
<filter id="filter0_iiii_25_172" x="3" y="1.03234" width="28" height="31.9353" filterUnits="userSpaceOnUse" color-interpolation-filters="sRGB">
<feFlood flood-opacity="0" result="BackgroundImageFix"/>
<feBlend mode="normal" in="SourceGraphic" in2="BackgroundImageFix" result="shape"/>
<feColorMatrix in="SourceAlpha" type="matrix" values="0 0 0 0 0 0 0 0 0 0 0 0 0 0 0 0 0 0 127 0" result="hardAlpha"/>
<feOffset dy="1.96766"/>
<feGaussianBlur stdDeviation="4.91916"/>
<feComposite in2="hardAlpha" operator="arithmetic" k2="-1" k3="1"/>
<feColorMatrix type="matrix" values="0 0 0 0 1 0 0 0 0 1 0 0 0 0 1 0 0 0 0.25 0"/>
<feBlend mode="normal" in2="shape" result="effect1_innerShadow_25_172"/>
<feColorMatrix in="SourceAlpha" type="matrix" values="0 0 0 0 0 0 0 0 0 0 0 0 0 0 0 0 0 0 127 0" result="hardAlpha"/>
<feOffset dy="0.983832"/>
<feGaussianBlur stdDeviation="1.22979"/>
<feComposite in2="hardAlpha" operator="arithmetic" k2="-1" k3="1"/>
<feColorMatrix type="matrix" values="0 0 0 0 1 0 0 0 0 1 0 0 0 0 1 0 0 0 0.36 0"/>
<feBlend mode="normal" in2="effect1_innerShadow_25_172" result="effect2_innerShadow_25_172"/>
<feColorMatrix in="SourceAlpha" type="matrix" values="0 0 0 0 0 0 0 0 0 0 0 0 0 0 0 0 0 0 127 0" result="hardAlpha"/>
<feOffset dy="-3.44341"/>
<feGaussianBlur stdDeviation="0.983832"/>
<feComposite in2="hardAlpha" operator="arithmetic" k2="-1" k3="1"/>
<feColorMatrix type="matrix" values="0 0 0 0 0 0 0 0 0 0 0 0 0 0 0 0 0 0 0.08 0"/>
<feBlend mode="normal" in2="effect2_innerShadow_25_172" result="effect3_innerShadow_25_172"/>
<feColorMatrix in="SourceAlpha" type="matrix" values="0 0 0 0 0 0 0 0 0 0 0 0 0 0 0 0 0 0 127 0" result="hardAlpha"/>
<feOffset dy="-0.983832"/>
<feGaussianBlur stdDeviation="1.22979"/>
<feComposite in2="hardAlpha" operator="arithmetic" k2="-1" k3="1"/>
<feColorMatrix type="matrix" values="0 0 0 0 0 0 0 0 0 0 0 0 0 0 0 0 0 0 0.36 0"/>
<feBlend mode="normal" in2="effect3_innerShadow_25_172" result="effect4_innerShadow_25_172"/>
</filter>
<linearGradient id="paint0_linear_25_172" x1="12.5" y1="9.5" x2="17" y2="31" gradientUnits="userSpaceOnUse">
<stop stop-color="#777777"/>
<stop offset="1" stop-color="white"/>
</linearGradient>
<radialGradient id="paint1_radial_25_172" cx="0" cy="0" r="1" gradientUnits="userSpaceOnUse" gradientTransform="translate(8.6 6.43) rotate(45.4735) scale(11.9788 27.2364)">
<stop stop-color="white"/>
<stop offset="1" stop-color="#727272" stop-opacity="0"/>
</radialGradient>
<radialGradient id="paint2_radial_25_172" cx="0" cy="0" r="1" gradientUnits="userSpaceOnUse" gradientTransform="translate(7.76 6.64) rotate(46.0267) scale(13.812 71.369)">
<stop stop-color="white"/>
<stop offset="0.6583" stop-color="#888888" stop-opacity="0"/>
</radialGradient>
</defs>
</svg>
