<svg width="20" height="19" viewBox="0 0 20 19" fill="none" xmlns="http://www.w3.org/2000/svg">
<g clip-path="url(#clip0_25_159)">
<path d="M15.5417 0H4.45833C3.40852 0 2.4017 0.417037 1.65937 1.15937C0.917037 1.9017 0.5 2.90852 0.5 3.95833L0.5 15.0417C0.5 15.5615 0.602385 16.0762 0.80131 16.5565C1.00024 17.0367 1.2918 17.4731 1.65937 17.8406C2.4017 18.583 3.40852 19 4.45833 19H15.5417C16.0615 19 16.5762 18.8976 17.0565 18.6987C17.5367 18.4998 17.9731 18.2082 18.3406 17.8406C18.7082 17.4731 18.9998 17.0367 19.1987 16.5565C19.3976 16.0762 19.5 15.5615 19.5 15.0417V3.95833C19.5 3.43852 19.3976 2.92379 19.1987 2.44354C18.9998 1.9633 18.7082 1.52693 18.3406 1.15937C17.9731 0.791804 17.5367 0.500235 17.0565 0.30131C16.5762 0.102385 16.0615 0 15.5417 0ZM17.9167 15.0417C17.9167 15.6716 17.6664 16.2756 17.221 16.721C16.7756 17.1664 16.1716 17.4167 15.5417 17.4167H4.45833C3.82844 17.4167 3.22435 17.1664 2.77895 16.721C2.33356 16.2756 2.08333 15.6716 2.08333 15.0417V3.95833C2.08333 3.32844 2.33356 2.72435 2.77895 2.27895C3.22435 1.83356 3.82844 1.58333 4.45833 1.58333H15.5417C16.1716 1.58333 16.7756 1.83356 17.221 2.27895C17.6664 2.72435 17.9167 3.32844 17.9167 3.95833V15.0417Z" fill="url(#paint0_linear_25_159)" fill-opacity="0.8"/>
</g>
<defs>
<linearGradient id="paint0_linear_25_159" x1="10" y1="-9.66758e-08" x2="13.2439" y2="21.0854" gradientUnits="userSpaceOnUse">
<stop stop-color="#DEDEDE"/>
<stop offset="0.353517" stop-color="#F7F7F7" stop-opacity="0.89041"/>
<stop offset="1" stop-color="#D5D5D6" stop-opacity="0.69"/>
</linearGradient>
<clipPath id="clip0_25_159">
<rect x="0.5" width="19" height="19" rx="3" fill="white"/>
</clipPath>
</defs>
</svg>
